<?xml version="1.0" encoding="UTF-8" standalone="no"?>
<svg xmlns="http://www.w3.org/2000/svg" width="100%" height="100%" viewBox="0 0 1412 1000" id="chord-svg" style="display: block;"><rect width="1412" height="1000" fill="#1a2332"/><text x="706" y="40" text-anchor="middle" fill="white" font-size="28px" font-weight="bold">Team Connection Chord Diagram</text><text x="706" y="70" text-anchor="middle" fill="#aaa" font-size="16px">35 teams • Hover over ribbons to see player movement</text><g transform="translate(706, 500)"><g><g><path fill="#BA0021" stroke="white" stroke-width="2" d="M0,-360A360,360,0,0,1,5.627,-359.956L5.158,-329.96A330,330,0,0,0,0,-330Z" style="cursor: pointer;"/><text dy=".35em" transform="&#10;            rotate(-89.5521855416343)&#10;            translate(385)&#10;            &#10;        " text-anchor="start" fill="white" font-size="14px" font-weight="bold" style="text-shadow: rgba(0, 0, 0, 0.8) 2px 2px 4px;">Anaheim Angels</text></g><g><path fill="#A71930" stroke="white" stroke-width="2" d="M23.61,-359.225A360,360,0,0,1,37.627,-358.028L34.491,-328.193A330,330,0,0,0,21.643,-329.29Z" style="cursor: pointer;"/><text dy=".35em" transform="&#10;            rotate(-85.12004596170023)&#10;            translate(385)&#10;            &#10;        " text-anchor="start" fill="white" font-size="14px" font-weight="bold" style="text-shadow: rgba(0, 0, 0, 0.8) 2px 2px 4px;">Arizona Diamondbacks</text></g><g><path fill="#CE1141" stroke="white" stroke-width="2" d="M55.474,-355.7A360,360,0,0,1,157.143,-323.892L144.047,-296.901A330,330,0,0,0,50.851,-326.059Z" style="cursor: pointer;"/><text dy=".35em" transform="&#10;            rotate(-72.62724613118357)&#10;            translate(385)&#10;            &#10;        " text-anchor="start" fill="white" font-size="14px" font-weight="bold" style="text-shadow: rgba(0, 0, 0, 0.8) 2px 2px 4px;">Atlanta Braves</text></g><g><path fill="#DF4601" stroke="white" stroke-width="2" d="M173.134,-315.634A360,360,0,0,1,224.587,-281.355L205.871,-257.909A330,330,0,0,0,158.706,-289.331Z" style="cursor: pointer;"/><text dy=".35em" transform="&#10;            rotate(-56.32802340455844)&#10;            translate(385)&#10;            &#10;        " text-anchor="start" fill="white" font-size="14px" font-weight="bold" style="text-shadow: rgba(0, 0, 0, 0.8) 2px 2px 4px;">Baltimore Orioles</text></g><g><path fill="#BD3039" stroke="white" stroke-width="2" d="M238.368,-269.779A360,360,0,0,1,279.245,-227.205L255.975,-208.271A330,330,0,0,0,218.504,-247.298Z" style="cursor: pointer;"/><text dy=".35em" transform="&#10;            rotate(-43.83522357404176)&#10;            translate(385)&#10;            &#10;        " text-anchor="start" fill="white" font-size="14px" font-weight="bold" style="text-shadow: rgba(0, 0, 0, 0.8) 2px 2px 4px;">Boston Red Sox</text></g><g><path fill="#CE1141" stroke="white" stroke-width="2" d="M290.252,-212.965L266.064,-195.218Z" style="cursor: pointer;"/><text dy=".35em" transform="&#10;            rotate(-36.26838278554779)&#10;            translate(385)&#10;            &#10;        " text-anchor="start" fill="white" font-size="14px" font-weight="bold" style="text-shadow: rgba(0, 0, 0, 0.8) 2px 2px 4px;">Burlington Braves</text></g><g><path fill="#BA0021" stroke="white" stroke-width="2" d="M300.533,-198.192A360,360,0,0,1,324.14,-156.631L297.128,-143.578A330,330,0,0,0,275.488,-181.676Z" style="cursor: pointer;"/><text dy=".35em" transform="&#10;            rotate(-29.59717091378524)&#10;            translate(385)&#10;            &#10;        " text-anchor="start" fill="white" font-size="14px" font-weight="bold" style="text-shadow: rgba(0, 0, 0, 0.8) 2px 2px 4px;">California Angels</text></g><g><path fill="#0E3386" stroke="white" stroke-width="2" d="M331.563,-140.235A360,360,0,0,1,344.077,-105.881L315.404,-97.057A330,330,0,0,0,303.933,-128.549Z" style="cursor: pointer;"/><text dy=".35em" transform="&#10;            rotate(-20.01516506264568)&#10;            translate(385)&#10;            &#10;        " text-anchor="start" fill="white" font-size="14px" font-weight="bold" style="text-shadow: rgba(0, 0, 0, 0.8) 2px 2px 4px;">Chicago Cubs</text></g><g><path fill="#27251F" stroke="white" stroke-width="2" d="M348.939,-88.552A360,360,0,0,1,358.201,-35.95L328.35,-32.954A330,330,0,0,0,319.861,-81.172Z" style="cursor: pointer;"/><text dy=".35em" transform="&#10;            rotate(-9.98534475314041)&#10;            translate(385)&#10;            &#10;        " text-anchor="start" fill="white" font-size="14px" font-weight="bold" style="text-shadow: rgba(0, 0, 0, 0.8) 2px 2px 4px;">Chicago White Sox</text></g><g><path fill="#C6011F" stroke="white" stroke-width="2" d="M359.55,-18.002A360,360,0,0,1,359.767,12.938L329.787,11.86A330,330,0,0,0,329.587,-16.502Z" style="cursor: pointer;"/><text dy=".35em" transform="&#10;            rotate(-0.40333890200084)&#10;            translate(385)&#10;            &#10;        " text-anchor="start" fill="white" font-size="14px" font-weight="bold" style="text-shadow: rgba(0, 0, 0, 0.8) 2px 2px 4px;">Cincinnati Reds</text></g><g><path fill="#E31937" stroke="white" stroke-width="2" d="M358.671,30.903A360,360,0,0,1,335.986,129.281L307.987,118.507A330,330,0,0,0,328.782,28.328Z" style="cursor: pointer;"/><text dy=".35em" transform="&#10;            rotate(12.985089845247145)&#10;            translate(385)&#10;            &#10;        " text-anchor="start" fill="white" font-size="14px" font-weight="bold" style="text-shadow: rgba(0, 0, 0, 0.8) 2px 2px 4px;">Cleveland Indians</text></g><g><path fill="#33006F" stroke="white" stroke-width="2" d="M329.105,145.912A360,360,0,0,1,319.344,166.191L292.732,152.342A330,330,0,0,0,301.679,133.752Z" style="cursor: pointer;"/><text dy=".35em" transform="&#10;            rotate(25.701796904946605)&#10;            translate(385)&#10;            &#10;        " text-anchor="start" fill="white" font-size="14px" font-weight="bold" style="text-shadow: rgba(0, 0, 0, 0.8) 2px 2px 4px;">Colorado Rockies</text></g><g><path fill="#0C2340" stroke="white" stroke-width="2" d="M310.639,181.944A360,360,0,0,1,253.955,255.161L232.792,233.897A330,330,0,0,0,284.752,166.782Z" style="cursor: pointer;"/><text dy=".35em" transform="&#10;            rotate(37.74678227709752)&#10;            translate(385)&#10;            &#10;        " text-anchor="start" fill="white" font-size="14px" font-weight="bold" style="text-shadow: rgba(0, 0, 0, 0.8) 2px 2px 4px;">Detroit Tigers</text></g><g><path fill="#00A3E0" stroke="white" stroke-width="2" d="M240.885,267.534A360,360,0,0,1,228.078,278.532L209.072,255.321A330,330,0,0,0,220.811,245.24Z" style="cursor: pointer;"/><text dy=".35em" transform="&#10;            rotate(49.34395319088273)&#10;            translate(385)&#10;            &#10;        " text-anchor="start" fill="white" font-size="14px" font-weight="bold" style="text-shadow: rgba(0, 0, 0, 0.8) 2px 2px 4px;">Florida Marlins</text></g><g><path fill="#EB6E1F" stroke="white" stroke-width="2" d="M213.873,289.583A360,360,0,0,1,195.36,302.382L179.08,277.183A330,330,0,0,0,196.05,265.451Z" style="cursor: pointer;"/><text dy=".35em" transform="&#10;            rotate(55.34344337509674)&#10;            translate(385)&#10;            &#10;        " text-anchor="start" fill="white" font-size="14px" font-weight="bold" style="text-shadow: rgba(0, 0, 0, 0.8) 2px 2px 4px;">Houston Astros</text></g><g><path fill="#004687" stroke="white" stroke-width="2" d="M180.003,311.768A360,360,0,0,1,126.642,336.989L116.088,308.907A330,330,0,0,0,165.003,285.787Z" style="cursor: pointer;"/><text dy=".35em" transform="&#10;            rotate(64.70154199705343)&#10;            translate(385)&#10;            &#10;        " text-anchor="start" fill="white" font-size="14px" font-weight="bold" style="text-shadow: rgba(0, 0, 0, 0.8) 2px 2px 4px;">Kansas City Royals</text></g><g><path fill="#005A9C" stroke="white" stroke-width="2" d="M109.641,342.898A360,360,0,0,1,43.774,357.329L40.126,327.551A330,330,0,0,0,100.504,314.323Z" style="cursor: pointer;"/><text dy=".35em" transform="&#10;            rotate(77.6421562859357)&#10;            translate(385)&#10;            &#10;        " text-anchor="start" fill="white" font-size="14px" font-weight="bold" style="text-shadow: rgba(0, 0, 0, 0.8) 2px 2px 4px;">Los Angeles Dodgers</text></g><g><path fill="#FDB827" stroke="white" stroke-width="2" d="M25.86,359.07L23.705,329.147Z" style="cursor: pointer;"/><text dy=".35em" transform="&#10;            rotate(85.88071876197822)&#10;            translate(385)&#10;            &#10;        " text-anchor="start" fill="white" font-size="14px" font-weight="bold" style="text-shadow: rgba(0, 0, 0, 0.8) 2px 2px 4px;">Memphis Chicks</text></g><g><path fill="#FFC52F" stroke="white" stroke-width="2" d="M7.882,359.914A360,360,0,0,1,-73.201,352.479L-67.101,323.106A330,330,0,0,0,7.225,329.921Z" style="cursor: pointer;"/><text dy=".35em" transform="&#10;            rotate(95.2388173839349)&#10;            translate(385)&#10;            rotate(180)&#10;        " text-anchor="end" fill="white" font-size="14px" font-weight="bold" style="text-shadow: rgba(0, 0, 0, 0.8) 2px 2px 4px;">Milwaukee Brewers</text></g><g><path fill="#002B5C" stroke="white" stroke-width="2" d="M-90.726,348.38A360,360,0,0,1,-125.595,337.381L-115.129,309.266A330,330,0,0,0,-83.166,319.349Z" style="cursor: pointer;"/><text dy=".35em" transform="&#10;            rotate(107.5077099852686)&#10;            translate(385)&#10;            rotate(180)&#10;        " text-anchor="end" fill="white" font-size="14px" font-weight="bold" style="text-shadow: rgba(0, 0, 0, 0.8) 2px 2px 4px;">Minnesota Twins</text></g><g><path fill="#003087" stroke="white" stroke-width="2" d="M-142.3,330.682A360,360,0,0,1,-203.796,296.761L-186.813,272.031A330,330,0,0,0,-130.442,303.125Z" style="cursor: pointer;"/><text dy=".35em" transform="&#10;            rotate(118.880973669871)&#10;            translate(385)&#10;            rotate(180)&#10;        " text-anchor="end" fill="white" font-size="14px" font-weight="bold" style="text-shadow: rgba(0, 0, 0, 0.8) 2px 2px 4px;">Montreal Expos</text></g><g><path fill="#FF5910" stroke="white" stroke-width="2" d="M-218.373,286.205A360,360,0,0,1,-278.892,227.638L-255.651,208.668A330,330,0,0,0,-200.175,262.355Z" style="cursor: pointer;"/><text dy=".35em" transform="&#10;            rotate(134.06066025058178)&#10;            translate(385)&#10;            rotate(180)&#10;        " text-anchor="end" fill="white" font-size="14px" font-weight="bold" style="text-shadow: rgba(0, 0, 0, 0.8) 2px 2px 4px;">New York Mets</text></g><g><path fill="#003087" stroke="white" stroke-width="2" d="M-289.921,213.415A360,360,0,0,1,-332.657,137.621L-304.935,126.153A330,330,0,0,0,-265.761,195.63Z" style="cursor: pointer;"/><text dy=".35em" transform="&#10;            rotate(150.58379020638958)&#10;            translate(385)&#10;            rotate(180)&#10;        " text-anchor="end" fill="white" font-size="14px" font-weight="bold" style="text-shadow: rgba(0, 0, 0, 0.8) 2px 2px 4px;">New York Yankees</text></g><g><path fill="#00529B" stroke="white" stroke-width="2" d="M-339.119,120.824L-310.859,110.755Z" style="cursor: pointer;"/><text dy=".35em" transform="&#10;            rotate(160.38970328671195)&#10;            translate(385)&#10;            rotate(180)&#10;        " text-anchor="end" fill="white" font-size="14px" font-weight="bold" style="text-shadow: rgba(0, 0, 0, 0.8) 2px 2px 4px;">Nippon-Ham Fighters</text></g><g><path fill="#003831" stroke="white" stroke-width="2" d="M-344.734,103.724A360,360,0,0,1,-352.367,73.739L-323.003,67.594A330,330,0,0,0,-316.006,95.08Z" style="cursor: pointer;"/><text dy=".35em" transform="&#10;            rotate(165.71747178337742)&#10;            translate(385)&#10;            rotate(180)&#10;        " text-anchor="end" fill="white" font-size="14px" font-weight="bold" style="text-shadow: rgba(0, 0, 0, 0.8) 2px 2px 4px;">Oakland Athletics</text></g><g><path fill="#E81828" stroke="white" stroke-width="2" d="M-355.612,56.036A360,360,0,0,1,-358.144,36.506L-328.299,33.464A330,330,0,0,0,-325.978,51.366Z" style="cursor: pointer;"/><text dy=".35em" transform="&#10;            rotate(172.61259088432274)&#10;            translate(385)&#10;            rotate(180)&#10;        " text-anchor="end" fill="white" font-size="14px" font-weight="bold" style="text-shadow: rgba(0, 0, 0, 0.8) 2px 2px 4px;">Philadelphia Phillies</text></g><g><path fill="#FDB827" stroke="white" stroke-width="2" d="M-359.521,18.56A360,360,0,0,1,-357.395,-43.228L-327.612,-39.626A330,330,0,0,0,-329.561,17.014Z" style="cursor: pointer;"/><text dy=".35em" transform="&#10;            rotate(181.97068950627937)&#10;            translate(385)&#10;            rotate(180)&#10;        " text-anchor="end" fill="white" font-size="14px" font-weight="bold" style="text-shadow: rgba(0, 0, 0, 0.8) 2px 2px 4px;">Pittsburgh Pirates</text></g><g><path fill="#7F411C" stroke="white" stroke-width="2" d="M-354.788,-61.037A360,360,0,0,1,-323.888,-157.151L-296.897,-144.055A330,330,0,0,0,-325.222,-55.95Z" style="cursor: pointer;"/><text dy=".35em" transform="&#10;            rotate(197.8220977745387)&#10;            translate(385)&#10;            rotate(180)&#10;        " text-anchor="end" fill="white" font-size="14px" font-weight="bold" style="text-shadow: rgba(0, 0, 0, 0.8) 2px 2px 4px;">San Diego Padres</text></g><g><path fill="#FD5A1E" stroke="white" stroke-width="2" d="M-315.629,-173.142A360,360,0,0,1,-283.096,-222.388L-259.505,-203.856A330,330,0,0,0,-289.327,-158.714Z" style="cursor: pointer;"/><text dy=".35em" transform="&#10;            rotate(213.44959881361513)&#10;            translate(385)&#10;            rotate(180)&#10;        " text-anchor="end" fill="white" font-size="14px" font-weight="bold" style="text-shadow: rgba(0, 0, 0, 0.8) 2px 2px 4px;">San Francisco Giants</text></g><g><path fill="#0C2C56" stroke="white" stroke-width="2" d="M-271.628,-236.259A360,360,0,0,1,-252.352,-256.746L-231.322,-235.351A330,330,0,0,0,-248.992,-216.571Z" style="cursor: pointer;"/><text dy=".35em" transform="&#10;            rotate(223.2555118939374)&#10;            translate(385)&#10;            rotate(180)&#10;        " text-anchor="end" fill="white" font-size="14px" font-weight="bold" style="text-shadow: rgba(0, 0, 0, 0.8) 2px 2px 4px;">Seattle Mariners</text></g><g><path fill="#27251F" stroke="white" stroke-width="2" d="M-239.204,-269.038L-219.271,-246.618Z" style="cursor: pointer;"/><text dy=".35em" transform="&#10;            rotate(228.35937316142002)&#10;            translate(385)&#10;            rotate(180)&#10;        " text-anchor="end" fill="white" font-size="14px" font-weight="bold" style="text-shadow: rgba(0, 0, 0, 0.8) 2px 2px 4px;">South Bend White Sox</text></g><g><path fill="#C41E3A" stroke="white" stroke-width="2" d="M-225.459,-280.657A360,360,0,0,1,-183.877,-309.498L-168.554,-283.707A330,330,0,0,0,-206.671,-257.269Z" style="cursor: pointer;"/><text dy=".35em" transform="&#10;            rotate(235.25449226236537)&#10;            translate(385)&#10;            rotate(180)&#10;        " text-anchor="end" fill="white" font-size="14px" font-weight="bold" style="text-shadow: rgba(0, 0, 0, 0.8) 2px 2px 4px;">St. Louis Cardinals</text></g><g><path fill="#003278" stroke="white" stroke-width="2" d="M-168.179,-318.301A360,360,0,0,1,-119.234,-339.681L-109.298,-311.374A330,330,0,0,0,-154.164,-291.776Z" style="cursor: pointer;"/><text dy=".35em" transform="&#10;            rotate(246.4038487177848)&#10;            translate(385)&#10;            rotate(180)&#10;        " text-anchor="end" fill="white" font-size="14px" font-weight="bold" style="text-shadow: rgba(0, 0, 0, 0.8) 2px 2px 4px;">Texas Rangers</text></g><g><path fill="#134A8E" stroke="white" stroke-width="2" d="M-102.108,-345.216A360,360,0,0,1,-41.535,-357.596L-38.073,-327.796A330,330,0,0,0,-93.599,-316.448Z" style="cursor: pointer;"/><text dy=".35em" transform="&#10;            rotate(258.4488340899356)&#10;            translate(385)&#10;            rotate(180)&#10;        " text-anchor="end" fill="white" font-size="14px" font-weight="bold" style="text-shadow: rgba(0, 0, 0, 0.8) 2px 2px 4px;">Toronto Blue Jays</text></g><g><path fill="#AB0003" stroke="white" stroke-width="2" d="M-23.61,-359.225A360,360,0,0,1,-17.993,-359.55L-16.493,-329.588A330,330,0,0,0,-21.643,-329.29Z" style="cursor: pointer;"/><text dy=".35em" transform="&#10;            rotate(266.687396565978)&#10;            translate(385)&#10;            rotate(180)&#10;        " text-anchor="end" fill="white" font-size="14px" font-weight="bold" style="text-shadow: rgba(0, 0, 0, 0.8) 2px 2px 4px;">Washington Senators</text></g></g><g><path class="ribbon" d="M2.0206672185931328e-14,-330A330,330,0,0,1,2.5791998634689826,-329.98992064616806Q0,0,329.80482136689295,-11.348118925700351A330,330,0,0,1,329.883442116268,-8.77009791980073Q0,0,2.0206672185931328e-14,-330Z" fill="#BA0021" stroke="rgb(130, 0, 23)" stroke-width="1" style="opacity: 0.75; cursor: pointer;"/><path class="ribbon" d="M2.5791998634689826,-329.98992064616806A330,330,0,0,1,5.158242171374217,-329.9596832003896Q0,0,70.62550006461865,322.35390293995596A330,330,0,0,1,68.10390308929703,322.89604888261425Q0,0,2.5791998634689826,-329.98992064616806Z" fill="#BA0021" stroke="rgb(130, 0, 23)" stroke-width="1" style="opacity: 0.75; cursor: pointer;"/><path class="ribbon" d="M21.642906571011977,-329.2895148576074A330,330,0,0,1,24.215892405100522,-329.1103015024364Q0,0,-240.35273939658887,226.12067721585183A330,330,0,0,1,-242.11270248597603,224.2352320553959Q0,0,21.642906571011977,-329.2895148576074Z" fill="#A71930" stroke="rgb(117, 18, 34)" stroke-width="1" style="opacity: 0.75; cursor: pointer;"/><path class="ribbon" d="M24.215892405100522,-329.1103015024364A330,330,0,0,1,26.78739896314122,-328.9109837886073Q0,0,-329.1096549687612,-24.224677631352208A330,330,0,0,1,-328.9102686114845,-26.796178867911102Q0,0,24.215892405100522,-329.1103015024364Z" fill="#A71930" stroke="rgb(117, 18, 34)" stroke-width="1" style="opacity: 0.75; cursor: pointer;"/><path class="ribbon" d="M26.78739896314122,-328.9109837886073A330,330,0,0,1,29.35726915953101,-328.6915738918399Q0,0,-306.2880552570027,-122.83170277612878A330,330,0,0,1,-305.3186773881746,-125.22182412796809Q0,0,26.78739896314122,-328.9109837886073Z" fill="#A71930" stroke="rgb(117, 18, 34)" stroke-width="1" style="opacity: 0.75; cursor: pointer;"/><path class="ribbon" d="M29.35726915953101,-328.6915738918399A330,330,0,0,1,31.92534600862755,-328.452085215225Q0,0,-243.84600525975134,-222.3491077536884A330,330,0,0,1,-242.10073071875655,-224.24815759654334Q0,0,29.35726915953101,-328.6915738918399Z" fill="#A71930" stroke="rgb(117, 18, 34)" stroke-width="1" style="opacity: 0.75; cursor: pointer;"/><path class="ribbon" d="M31.92534600862755,-328.452085215225A330,330,0,0,1,34.49147263433838,-328.19253238840565Q0,0,-192.29317868450158,-268.1852595341704A330,330,0,0,1,-190.19123451552474,-269.6799850071575Q0,0,31.92534600862755,-328.452085215225Z" fill="#A71930" stroke="rgb(117, 18, 34)" stroke-width="1" style="opacity: 0.75; cursor: pointer;"/><path class="ribbon" d="M127.59617224016498,-304.3340546663455A330,330,0,0,1,129.97087607433704,-303.32749854319064Q0,0,237.14542864707718,-229.48212495049376A330,330,0,0,1,238.9317619581557,-227.62164468163218Q0,0,127.59617224016498,-304.3340546663455Z" fill="#CE1141" stroke="rgb(144, 12, 46)" stroke-width="1" style="opacity: 0.75; cursor: pointer;"/><path class="ribbon" d="M98.53370474495252,-314.9462002139961A330,330,0,0,1,103.44460234503984,-313.36753859593784Q0,0,306.8632971299407,-121.38746588730538A330,330,0,0,1,308.723218946783,-116.57604420779028Q0,0,98.53370474495252,-314.9462002139961Z" fill="#CE1141" stroke="rgb(144, 12, 46)" stroke-width="1" style="opacity: 0.75; cursor: pointer;"/><path class="ribbon" d="M103.44460234503984,-313.36753859593784A330,330,0,0,1,108.33022385237855,-311.7123074248008Q0,0,320.9720671282609,76.66115133110883A330,330,0,0,1,319.7345600064028,81.66891169540588Q0,0,103.44460234503984,-313.36753859593784Z" fill="#CE1141" stroke="rgb(144, 12, 46)" stroke-width="1" style="opacity: 0.75; cursor: pointer;"/><path class="ribbon" d="M129.97087607433704,-303.32749854319064A330,330,0,0,1,132.33764037852248,-302.30241305527954Q0,0,299.55166511889416,138.45143525618602A330,330,0,0,1,298.46041296697445,140.78842953731348Q0,0,129.97087607433704,-303.32749854319064Z" fill="#CE1141" stroke="rgb(144, 12, 46)" stroke-width="1" style="opacity: 0.75; cursor: pointer;"/><path class="ribbon" d="M50.851157404564034,-326.0585220334169A330,330,0,0,1,61.01832878269674,-324.3096723080684Q0,0,278.0188605423585,177.77939470795997A330,330,0,0,1,272.3259306783814,186.38290554703087Q0,0,50.851157404564034,-326.0585220334169Z" fill="#CE1141" stroke="rgb(144, 12, 46)" stroke-width="1" style="opacity: 0.75; cursor: pointer;"/><path class="ribbon" d="M132.33764037852248,-302.30241305527954A330,330,0,0,1,134.69632057420696,-301.25886082200213Q0,0,139.85306012491003,298.89985208042225A330,330,0,0,1,137.5126598638367,299.98378019015087Q0,0,132.33764037852248,-302.30241305527954Z" fill="#CE1141" stroke="rgb(144, 12, 46)" stroke-width="1" style="opacity: 0.75; cursor: pointer;"/><path class="ribbon" d="M134.69632057420696,-301.25886082200213A330,330,0,0,1,137.04677257670997,-300.1969055908264Q0,0,68.10390308929703,322.89604888261425A330,330,0,0,1,65.57814585132952,323.4184700766203Q0,0,134.69632057420696,-301.25886082200213Z" fill="#CE1141" stroke="rgb(144, 12, 46)" stroke-width="1" style="opacity: 0.75; cursor: pointer;"/><path class="ribbon" d="M61.01832878269674,-324.3096723080684A330,330,0,0,1,71.12586589516901,-322.24386914363856Q0,0,-21.13166208432129,329.32271840484077A330,330,0,0,1,-31.41538923089314,328.5012531474903Q0,0,61.01832878269674,-324.3096723080684Z" fill="#CE1141" stroke="rgb(144, 12, 46)" stroke-width="1" style="opacity: 0.75; cursor: pointer;"/><path class="ribbon" d="M137.04677257670997,-300.1969055908264A330,330,0,0,1,139.38885280398674,-299.1166122334039Q0,0,-95.57890516133531,315.8554620204635A330,330,0,0,1,-98.04463543683566,315.09879317772385Q0,0,137.04677257670997,-300.1969055908264Z" fill="#CE1141" stroke="rgb(144, 12, 46)" stroke-width="1" style="opacity: 0.75; cursor: pointer;"/><path class="ribbon" d="M91.1225921771846,-317.1697860687718A330,330,0,0,1,98.53370474495252,-314.9462002139961Q0,0,-139.85306012490415,298.899852080425A330,330,0,0,1,-146.82243243679915,295.53878482077704Q0,0,91.1225921771846,-317.1697860687718Z" fill="#CE1141" stroke="rgb(144, 12, 46)" stroke-width="1" style="opacity: 0.75; cursor: pointer;"/><path class="ribbon" d="M108.33022385237855,-311.7123074248008A330,330,0,0,1,113.18937549349418,-309.98091114678783Q0,0,-225.75368492379516,240.6974734876289A330,330,0,0,1,-229.48845520322152,237.13930279150054Q0,0,108.33022385237855,-311.7123074248008Z" fill="#CE1141" stroke="rgb(144, 12, 46)" stroke-width="1" style="opacity: 0.75; cursor: pointer;"/><path class="ribbon" d="M139.38885280398674,-299.1166122334039A330,330,0,0,1,141.72241818539908,-298.01804674160735Q0,0,-290.5666089465073,156.43224017231074A330,330,0,0,1,-291.7803704278141,154.15646412981712Q0,0,139.38885280398674,-299.1166122334039Z" fill="#CE1141" stroke="rgb(144, 12, 46)" stroke-width="1" style="opacity: 0.75; cursor: pointer;"/><path class="ribbon" d="M113.18937549349418,-309.98091114678783A330,330,0,0,1,118.02086996267164,-308.1737728186066Q0,0,-316.0060047617291,95.07999239866412A330,330,0,0,1,-317.453596506199,90.12887475875533Q0,0,113.18937549349418,-309.98091114678783Z" fill="#CE1141" stroke="rgb(144, 12, 46)" stroke-width="1" style="opacity: 0.75; cursor: pointer;"/><path class="ribbon" d="M118.02086996267164,-308.1737728186066A330,330,0,0,1,122.82352671206647,-306.2913340040986Q0,0,-325.97781218305215,51.366000081287204A330,330,0,0,1,-326.7408906244548,46.26435338290248Q0,0,118.02086996267164,-308.1737728186066Z" fill="#CE1141" stroke="rgb(144, 12, 46)" stroke-width="1" style="opacity: 0.75; cursor: pointer;"/><path class="ribbon" d="M71.12586589516901,-322.24386914363856A330,330,0,0,1,81.16389047154368,-319.8631314852077Q0,0,-329.56112929977905,17.013584415235037A330,330,0,0,1,-329.9319013605822,6.7037649564327895Q0,0,71.12586589516901,-322.24386914363856Z" fill="#CE1141" stroke="rgb(144, 12, 46)" stroke-width="1" style="opacity: 0.75; cursor: pointer;"/><path class="ribbon" d="M81.16389047154368,-319.8631314852077A330,330,0,0,1,91.1225921771846,-317.1697860687718Q0,0,-322.24197040263874,-71.13446781290277A330,330,0,0,1,-319.86096479111114,-81.17242883454675Q0,0,81.16389047154368,-319.8631314852077Z" fill="#CE1141" stroke="rgb(144, 12, 46)" stroke-width="1" style="opacity: 0.75; cursor: pointer;"/><path class="ribbon" d="M141.72241818539908,-298.01804674160735A330,330,0,0,1,144.04732617045502,-296.90127622349917Q0,0,-276.0511711637846,-180.81966402773486A330,330,0,0,1,-274.62949701165513,-182.97169008107596Q0,0,141.72241818539908,-298.01804674160735Z" fill="#CE1141" stroke="rgb(144, 12, 46)" stroke-width="1" style="opacity: 0.75; cursor: pointer;"/><path class="ribbon" d="M122.82352671206647,-306.2913340040986A330,330,0,0,1,127.59617224016498,-304.3340546663455Q0,0,-200.58221603570541,-262.04345939215045A330,330,0,0,1,-196.4616995024367,-265.1467530040944Q0,0,122.82352671206647,-306.2913340040986Z" fill="#CE1141" stroke="rgb(144, 12, 46)" stroke-width="1" style="opacity: 0.75; cursor: pointer;"/><path class="ribbon" d="M185.1052463458081,-273.1959878461939A330,330,0,0,1,187.23482608301748,-271.74090583065Q0,0,238.9317619581557,-227.62164468163218A330,330,0,0,1,240.70349964638294,-225.74725969097327Q0,0,185.1052463458081,-273.1959878461939Z" fill="#DF4601" stroke="rgb(156, 49, 1)" stroke-width="1" style="opacity: 0.75; cursor: pointer;"/><path class="ribbon" d="M158.70618366299522,-289.33086124215583A330,330,0,0,1,163.20933555552747,-286.8147708670584Q0,0,279.67213145092126,-175.1670599447813A330,330,0,0,1,282.37600608838335,-170.77409401186497Q0,0,158.70618366299522,-289.33086124215583Z" fill="#DF4601" stroke="rgb(156, 49, 1)" stroke-width="1" style="opacity: 0.75; cursor: pointer;"/><path class="ribbon" d="M187.23482608301748,-271.74090583065A330,330,0,0,1,189.35296820773146,-270.2692239803153Q0,0,308.723218946783,-116.57604420779028A330,330,0,0,1,309.62491951267566,-114.15957785822924Q0,0,187.23482608301748,-271.74090583065Z" fill="#DF4601" stroke="rgb(156, 49, 1)" stroke-width="1" style="opacity: 0.75; cursor: pointer;"/><path class="ribbon" d="M163.20933555552747,-286.8147708670584A330,330,0,0,1,167.6726081869921,-284.2285989547347Q0,0,319.7345600064028,81.66891169540588A330,330,0,0,1,318.41892758645804,86.65671673153793Q0,0,163.20933555552747,-286.8147708670584Z" fill="#DF4601" stroke="rgb(156, 49, 1)" stroke-width="1" style="opacity: 0.75; cursor: pointer;"/><path class="ribbon" d="M189.35296820773146,-270.2692239803153A330,330,0,0,1,191.4595433290169,-268.7810321958086Q0,0,245.2338627946583,220.81746429757473A330,330,0,0,1,243.5005168169536,222.7274080796445Q0,0,189.35296820773146,-270.2692239803153Z" fill="#DF4601" stroke="rgb(156, 49, 1)" stroke-width="1" style="opacity: 0.75; cursor: pointer;"/><path class="ribbon" d="M191.4595433290169,-268.7810321958086A330,330,0,0,1,193.5544227625344,-267.27642138629085Q0,0,189.77233005854401,269.97492984377465A330,330,0,0,1,187.65647525655828,271.4498983132702Q0,0,191.4595433290169,-268.7810321958086Z" fill="#DF4601" stroke="rgb(156, 49, 1)" stroke-width="1" style="opacity: 0.75; cursor: pointer;"/><path class="ribbon" d="M193.5544227625344,-267.27642138629085A330,330,0,0,1,195.63747853839874,-265.75548346391196Q0,0,-46.78027936383872,326.6674233262956A330,330,0,0,1,-49.332003784005,326.2918224575279Q0,0,193.5544227625344,-267.27642138629085Z" fill="#DF4601" stroke="rgb(156, 49, 1)" stroke-width="1" style="opacity: 0.75; cursor: pointer;"/><path class="ribbon" d="M195.63747853839874,-265.75548346391196A330,330,0,0,1,197.70858340899656,-264.218311338196Q0,0,-98.04463543683566,315.09879317772385A330,330,0,0,1,-100.50437646038515,314.3228758972359Q0,0,195.63747853839874,-265.75548346391196Z" fill="#DF4601" stroke="rgb(156, 49, 1)" stroke-width="1" style="opacity: 0.75; cursor: pointer;"/><path class="ribbon" d="M167.6726081869921,-284.2285989547347A330,330,0,0,1,172.09491098243,-281.57297742139514Q0,0,-229.48845520322152,237.13930279150054A330,330,0,0,1,-233.16715130045804,233.52318847264252Q0,0,167.6726081869921,-284.2285989547347Z" fill="#DF4601" stroke="rgb(156, 49, 1)" stroke-width="1" style="opacity: 0.75; cursor: pointer;"/><path class="ribbon" d="M197.70858340899656,-264.218311338196A330,330,0,0,1,199.76761085675926,-262.6649989103657Q0,0,-291.7803704278141,154.15646412981712A330,330,0,0,1,-292.9763079236981,151.87127113249048Q0,0,197.70858340899656,-264.218311338196Z" fill="#DF4601" stroke="rgb(156, 49, 1)" stroke-width="1" style="opacity: 0.75; cursor: pointer;"/><path class="ribbon" d="M172.09491098243,-281.57297742139514A330,330,0,0,1,176.47516337762505,-278.8485551528653Q0,0,-326.7408906244548,46.26435338290248A330,330,0,0,1,-327.4241318112403,41.1514022562484Q0,0,172.09491098243,-281.57297742139514Z" fill="#DF4601" stroke="rgb(156, 49, 1)" stroke-width="1" style="opacity: 0.75; cursor: pointer;"/><path class="ribbon" d="M199.76761085675926,-262.6649989103657A330,330,0,0,1,201.81443510189172,-261.0956410676064Q0,0,-328.9102686114845,-26.796178867911102A330,330,0,0,1,-328.69079011495757,-29.36604320648118Q0,0,199.76761085675926,-262.6649989103657Z" fill="#DF4601" stroke="rgb(156, 49, 1)" stroke-width="1" style="opacity: 0.75; cursor: pointer;"/><path class="ribbon" d="M176.47516337762505,-278.8485551528653A330,330,0,0,1,180.81229508313467,-276.05599784603385Q0,0,-311.70941555843626,-108.33854462848436A330,330,0,0,1,-309.9778895713705,-113.19765005016325Q0,0,176.47516337762505,-278.8485551528653Z" fill="#DF4601" stroke="rgb(156, 49, 1)" stroke-width="1" style="opacity: 0.75; cursor: pointer;"/><path class="ribbon" d="M201.81443510189172,-261.0956410676064A330,330,0,0,1,203.84893111005576,-259.5103336772695Q0,0,-190.19123451552474,-269.6799850071575A330,330,0,0,1,-188.07767213595142,-271.1582365408094Q0,0,201.81443510189172,-261.0956410676064Z" fill="#DF4601" stroke="rgb(156, 49, 1)" stroke-width="1" style="opacity: 0.75; cursor: pointer;"/><path class="ribbon" d="M203.84893111005576,-259.5103336772695A330,330,0,0,1,205.87097460000814,-257.9091735810163Q0,0,-144.9685027171573,-296.452581739383A330,330,0,0,1,-142.64707348327664,-297.5765656543819Q0,0,203.84893111005576,-259.5103336772695Z" fill="#DF4601" stroke="rgb(156, 49, 1)" stroke-width="1" style="opacity: 0.75; cursor: pointer;"/><path class="ribbon" d="M180.81229508313467,-276.05599784603385A330,330,0,0,1,185.1052463458081,-273.1959878461939Q0,0,-61.01832878270837,-324.30967230806624A330,330,0,0,1,-55.941577594774785,-325.2238304555922Q0,0,180.81229508313467,-276.05599784603385Z" fill="#DF4601" stroke="rgb(156, 49, 1)" stroke-width="1" style="opacity: 0.75; cursor: pointer;"/><path class="ribbon" d="M240.70349964638294,-225.74725969097327A330,330,0,0,1,242.46053348163124,-223.85908447905967Q0,0,315.55459173204173,96.56759102734442A330,330,0,0,1,314.79020475029444,99.03093957580995Q0,0,240.70349964638294,-225.74725969097327Z" fill="#BD3039" stroke="rgb(132, 34, 40)" stroke-width="1" style="opacity: 0.75; cursor: pointer;"/><path class="ribbon" d="M229.85633484253458,-236.78273867145938A330,330,0,0,1,233.52941252822416,-233.16091757458517Q0,0,220.81091797262425,245.2397571848557A330,330,0,0,1,216.95058934492678,248.661299326793Q0,0,229.85633484253458,-236.78273867145938Z" fill="#BD3039" stroke="rgb(132, 34, 40)" stroke-width="1" style="opacity: 0.75; cursor: pointer;"/><path class="ribbon" d="M218.50377573238998,-247.29759398483725A330,330,0,0,1,224.24169490586482,-242.10671668862275Q0,0,165.00254292822856,285.7869150734828A330,330,0,0,1,158.25680937656364,289.5769021968948Q0,0,218.50377573238998,-247.29759398483725Z" fill="#BD3039" stroke="rgb(132, 34, 40)" stroke-width="1" style="opacity: 0.75; cursor: pointer;"/><path class="ribbon" d="M242.46053348163124,-223.85908447905967A330,330,0,0,1,244.20275613198712,-221.95723438883724Q0,0,65.57814585132952,323.4184700766203A330,330,0,0,1,63.04838264163062,323.9211346088343Q0,0,242.46053348163124,-223.85908447905967Z" fill="#BD3039" stroke="rgb(132, 34, 40)" stroke-width="1" style="opacity: 0.75; cursor: pointer;"/><path class="ribbon" d="M244.20275613198712,-221.95723438883724A330,330,0,0,1,245.93006117030785,-220.04182559860894Q0,0,-49.332003784005,326.2918224575279A330,330,0,0,1,-51.88071466040535,325.8962894025116Q0,0,244.20275613198712,-221.95723438883724Z" fill="#BD3039" stroke="rgb(132, 34, 40)" stroke-width="1" style="opacity: 0.75; cursor: pointer;"/><path class="ribbon" d="M245.93006117030785,-220.04182559860894A330,330,0,0,1,247.6423430807229,-218.11297511493797Q0,0,-100.50437646038515,314.3228758972359A330,330,0,0,1,-102.95797797380125,313.5277575774532Q0,0,245.93006117030785,-220.04182559860894Z" fill="#BD3039" stroke="rgb(132, 34, 40)" stroke-width="1" style="opacity: 0.75; cursor: pointer;"/><path class="ribbon" d="M247.6423430807229,-218.11297511493797A330,330,0,0,1,249.3394972650792,-216.1708007655002Q0,0,-169.44953002792147,283.1728390459024A330,330,0,0,1,-171.65756459166542,281.8398135793774Q0,0,247.6423430807229,-218.11297511493797Z" fill="#BD3039" stroke="rgb(132, 34, 40)" stroke-width="1" style="opacity: 0.75; cursor: pointer;"/><path class="ribbon" d="M249.3394972650792,-216.1708007655002A330,330,0,0,1,251.02142004933114,-214.21542119188632Q0,0,-242.11270248597603,224.2352320553959A330,330,0,0,1,-243.8578756384204,222.33608903890678Q0,0,249.3394972650792,-216.1708007655002Z" fill="#BD3039" stroke="rgb(132, 34, 40)" stroke-width="1" style="opacity: 0.75; cursor: pointer;"/><path class="ribbon" d="M251.02142004933114,-214.21542119188632A330,330,0,0,1,252.68800868987353,-212.24695584235454Q0,0,-292.9763079236981,151.87127113249048A330,330,0,0,1,-294.15434837793396,149.5768007758993Q0,0,251.02142004933114,-214.21542119188632Z" fill="#BD3039" stroke="rgb(132, 34, 40)" stroke-width="1" style="opacity: 0.75; cursor: pointer;"/><path class="ribbon" d="M233.52941252822416,-233.16091757458517A330,330,0,0,1,237.14542864707718,-229.48212495049376Q0,0,-309.9778895713705,-113.19765005016325A330,330,0,0,1,-308.17062227244105,-118.02909627806372Q0,0,233.52941252822416,-233.16091757458517Z" fill="#BD3039" stroke="rgb(132, 34, 40)" stroke-width="1" style="opacity: 0.75; cursor: pointer;"/><path class="ribbon" d="M252.68800868987353,-212.24695584235454A330,330,0,0,1,254.33916137981788,-210.26552496453374Q0,0,-274.62949701165513,-182.97169008107596A330,330,0,0,1,-273.19104656938583,-185.11253894408037Q0,0,252.68800868987353,-212.24695584235454Z" fill="#BD3039" stroke="rgb(132, 34, 40)" stroke-width="1" style="opacity: 0.75; cursor: pointer;"/><path class="ribbon" d="M224.24169490586482,-242.10671668862275A330,330,0,0,1,229.85633484253458,-236.78273867145938Q0,0,-206.67078364121292,-257.26870619864934A330,330,0,0,1,-200.58221603570541,-262.04345939215045Q0,0,224.24169490586482,-242.10671668862275Z" fill="#BD3039" stroke="rgb(132, 34, 40)" stroke-width="1" style="opacity: 0.75; cursor: pointer;"/><path class="ribbon" d="M254.33916137981788,-210.26552496453374A330,330,0,0,1,255.9747772552115,-208.27124959807793Q0,0,-45.7483120269646,-326.81354308945566A330,330,0,0,1,-43.19261942350926,-327.1611187585345Q0,0,254.33916137981788,-210.26552496453374Z" fill="#BD3039" stroke="rgb(132, 34, 40)" stroke-width="1" style="opacity: 0.75; cursor: pointer;"/><path class="ribbon" d="M290.07109004462745,-157.34917451426824A330,330,0,0,1,291.2920331969643,-155.07724332080008Q0,0,325.22233704128496,-55.95025906468034A330,330,0,0,1,325.6496972519867,-53.406691338159Q0,0,290.07109004462745,-157.34917451426824Z" fill="#BA0021" stroke="rgb(130, 0, 23)" stroke-width="1" style="opacity: 0.75; cursor: pointer;"/><path class="ribbon" d="M291.2920331969643,-155.07724332080008A330,330,0,0,1,292.4951821949314,-152.79583892486698Q0,0,314.79020475029444,99.03093957580995A330,330,0,0,1,314.00658818153795,101.48823862197065Q0,0,291.2920331969643,-155.07724332080008Z" fill="#BA0021" stroke="rgb(130, 0, 23)" stroke-width="1" style="opacity: 0.75; cursor: pointer;"/><path class="ribbon" d="M292.4951821949314,-152.79583892486698A330,330,0,0,1,293.68046354177426,-150.50510069060311Q0,0,298.46041296697445,140.78842953731348A330,330,0,0,1,297.35092876592057,143.11682347664245Q0,0,292.4951821949314,-152.79583892486698Z" fill="#BA0021" stroke="rgb(130, 0, 23)" stroke-width="1" style="opacity: 0.75; cursor: pointer;"/><path class="ribbon" d="M293.68046354177426,-150.50510069060311A330,330,0,0,1,294.84780483221977,-148.20516855231884Q0,0,243.5005168169536,222.7274080796445A330,330,0,0,1,241.75229612490187,224.6237461141136Q0,0,293.68046354177426,-150.50510069060311Z" fill="#BA0021" stroke="rgb(130, 0, 23)" stroke-width="1" style="opacity: 0.75; cursor: pointer;"/><path class="ribbon" d="M294.84780483221977,-148.20516855231884A330,330,0,0,1,295.99713475689873,-145.89618300595234Q0,0,137.5126598638367,299.98378019015087A330,330,0,0,1,135.16385936788373,301.04938319282263Q0,0,294.84780483221977,-148.20516855231884Z" fill="#BA0021" stroke="rgb(130, 0, 23)" stroke-width="1" style="opacity: 0.75; cursor: pointer;"/><path class="ribbon" d="M282.37600608838335,-170.77409401186497A330,330,0,0,1,285.0108837752257,-166.33940041272484Q0,0,-31.41538923089314,328.5012531474903A330,330,0,0,1,-36.54636635023352,327.97006434519983Q0,0,282.37600608838335,-170.77409401186497Z" fill="#BA0021" stroke="rgb(130, 0, 23)" stroke-width="1" style="opacity: 0.75; cursor: pointer;"/><path class="ribbon" d="M285.0108837752257,-166.33940041272484A330,330,0,0,1,287.5761206942622,-161.86406273919832Q0,0,-90.63007970733779,317.3108706808539A330,330,0,0,1,-95.57890516133531,315.8554620204635Q0,0,285.0108837752257,-166.33940041272484Z" fill="#BA0021" stroke="rgb(130, 0, 23)" stroke-width="1" style="opacity: 0.75; cursor: pointer;"/><path class="ribbon" d="M295.99713475689873,-145.89618300595234A330,330,0,0,1,297.1283831067022,-143.57828510048734Q0,0,-294.15434837793396,149.5768007758993A330,330,0,0,1,-295.31441982757275,147.27319322233797Q0,0,295.99713475689873,-145.89618300595234Z" fill="#BA0021" stroke="rgb(130, 0, 23)" stroke-width="1" style="opacity: 0.75; cursor: pointer;"/><path class="ribbon" d="M287.5761206942622,-161.86406273919832A330,330,0,0,1,290.07109004462745,-157.34917451426824Q0,0,-308.17062227244105,-118.02909627806372A330,330,0,0,1,-306.2880552570027,-122.83170277612878Q0,0,287.5761206942622,-161.86406273919832Z" fill="#BA0021" stroke="rgb(130, 0, 23)" stroke-width="1" style="opacity: 0.75; cursor: pointer;"/><path class="ribbon" d="M275.48840001173073,-181.67592426894828A330,330,0,0,1,279.67213145092126,-175.1670599447813Q0,0,-83.66138400332747,-319.21900448852944A330,330,0,0,1,-76.15418210124423,-321.0927288938361Q0,0,275.48840001173073,-181.67592426894828Z" fill="#BA0021" stroke="rgb(130, 0, 23)" stroke-width="1" style="opacity: 0.75; cursor: pointer;"/><path class="ribbon" d="M309.62491951267566,-114.15957785822924A330,330,0,0,1,310.5077060233019,-111.73613784334373Q0,0,325.6496972519867,-53.406691338159A330,330,0,0,1,326.05716450193773,-50.859861157461964Q0,0,309.62491951267566,-114.15957785822924Z" fill="#0E3386" stroke="rgb(10, 36, 94)" stroke-width="1" style="opacity: 0.75; cursor: pointer;"/><path class="ribbon" d="M303.93297341318504,-128.5486198767616A330,330,0,0,1,306.8632971299407,-121.38746588730538Q0,0,327.7357605003419,38.59107784530734A330,330,0,0,1,326.74089062445586,46.264353382894896Q0,0,303.93297341318504,-128.5486198767616Z" fill="#0E3386" stroke="rgb(10, 36, 94)" stroke-width="1" style="opacity: 0.75; cursor: pointer;"/><path class="ribbon" d="M310.5077060233019,-111.73613784334373A330,330,0,0,1,311.3715245518884,-109.30587220379675Q0,0,135.16385936788373,301.04938319282263A330,330,0,0,1,132.80680211821038,302.0965959939544Q0,0,310.5077060233019,-111.73613784334373Z" fill="#0E3386" stroke="rgb(10, 36, 94)" stroke-width="1" style="opacity: 0.75; cursor: pointer;"/><path class="ribbon" d="M311.3715245518884,-109.30587220379675A330,330,0,0,1,312.2163223303588,-106.86892939720826Q0,0,63.04838264163062,323.9211346088343A330,330,0,0,1,60.514767995827604,324.40401177299145Q0,0,311.3715245518884,-109.30587220379675Z" fill="#0E3386" stroke="rgb(10, 36, 94)" stroke-width="1" style="opacity: 0.75; cursor: pointer;"/><path class="ribbon" d="M312.2163223303588,-106.86892939720826A330,330,0,0,1,313.0420477525572,-104.42545828908618Q0,0,-51.88071466040535,325.8962894025116A330,330,0,0,1,-54.42625629995651,325.4808483231716Q0,0,312.2163223303588,-106.86892939720826Z" fill="#0E3386" stroke="rgb(10, 36, 94)" stroke-width="1" style="opacity: 0.75; cursor: pointer;"/><path class="ribbon" d="M313.0420477525572,-104.42545828908618A330,330,0,0,1,313.84865037740065,-101.97560814373286Q0,0,-102.95797797380125,313.5277575774532A330,330,0,0,1,-105.40529009394572,312.7134867897628Q0,0,313.0420477525572,-104.42545828908618Z" fill="#0E3386" stroke="rgb(10, 36, 94)" stroke-width="1" style="opacity: 0.75; cursor: pointer;"/><path class="ribbon" d="M313.84865037740065,-101.97560814373286A330,330,0,0,1,314.6360809319601,-99.51952861512675Q0,0,-328.69079011495757,-29.36604320648118A330,330,0,0,1,-328.45123288646164,-31.934113661777793Q0,0,313.84865037740065,-101.97560814373286Z" fill="#0E3386" stroke="rgb(10, 36, 94)" stroke-width="1" style="opacity: 0.75; cursor: pointer;"/><path class="ribbon" d="M314.6360809319601,-99.51952861512675A330,330,0,0,1,315.4042913144711,-97.0573697377806Q0,0,-273.19104656938583,-185.11253894408037A330,330,0,0,1,-271.73590770758864,-187.24207983872873Q0,0,314.6360809319601,-99.51952861512675Z" fill="#0E3386" stroke="rgb(10, 36, 94)" stroke-width="1" style="opacity: 0.75; cursor: pointer;"/><path class="ribbon" d="M322.24197040263704,-71.13446781291053A330,330,0,0,1,323.82116577254,-63.55983478355776Q0,0,326.74089062445586,46.264353382894896A330,330,0,0,1,325.5663914978808,53.91219460426968Q0,0,322.24197040263704,-71.13446781291053Z" fill="#27251F" stroke="rgb(27, 26, 22)" stroke-width="1" style="opacity: 0.75; cursor: pointer;"/><path class="ribbon" d="M326.05716450193773,-50.859861157461964A330,330,0,0,1,326.444713900189,-48.30992410078643Q0,0,241.75229612490187,224.6237461141136A330,330,0,0,1,239.9893075120481,226.50636255939395Q0,0,326.05716450193773,-50.859861157461964Z" fill="#27251F" stroke="rgb(27, 26, 22)" stroke-width="1" style="opacity: 0.75; cursor: pointer;"/><path class="ribbon" d="M326.444713900189,-48.30992410078643A330,330,0,0,1,326.8123217725132,-45.757035936119344Q0,0,216.95058934492678,248.661299326793A330,330,0,0,1,215.00048658423668,250.34933746375575Q0,0,326.444713900189,-48.30992410078643Z" fill="#27251F" stroke="rgb(27, 26, 22)" stroke-width="1" style="opacity: 0.75; cursor: pointer;"/><path class="ribbon" d="M326.8123217725132,-45.757035936119344A330,330,0,0,1,327.1599656628507,-43.20135261172194Q0,0,132.80680211821038,302.0965959939544A330,330,0,0,1,130.4416321003562,303.1253546224653Q0,0,326.8123217725132,-45.757035936119344Z" fill="#27251F" stroke="rgb(27, 26, 22)" stroke-width="1" style="opacity: 0.75; cursor: pointer;"/><path class="ribbon" d="M319.86096479110915,-81.1724288345546A330,330,0,0,1,322.24197040263704,-71.13446781291053Q0,0,-130.4416321003501,303.1253546224679A330,330,0,0,1,-139.85306012490415,298.899852080425Q0,0,319.86096479110915,-81.1724288345546Z" fill="#27251F" stroke="rgb(27, 26, 22)" stroke-width="1" style="opacity: 0.75; cursor: pointer;"/><path class="ribbon" d="M323.82116577254,-63.55983478355776A330,330,0,0,1,325.22233704128496,-55.95025906468034Q0,0,-265.76070569497364,195.6303844204923A330,330,0,0,1,-270.27427845172804,189.3457536027618Q0,0,323.82116577254,-63.55983478355776Z" fill="#27251F" stroke="rgb(27, 26, 22)" stroke-width="1" style="opacity: 0.75; cursor: pointer;"/><path class="ribbon" d="M327.1599656628507,-43.20135261172194A330,330,0,0,1,327.4876243346818,-40.643030246603374Q0,0,-321.32964399824255,75.148252727277A330,330,0,0,1,-321.9071699618655,72.63452297043492Q0,0,327.1599656628507,-43.20135261172194Z" fill="#27251F" stroke="rgb(27, 26, 22)" stroke-width="1" style="opacity: 0.75; cursor: pointer;"/><path class="ribbon" d="M327.4876243346818,-40.643030246603374A330,330,0,0,1,327.79527777232346,-38.08222512098384Q0,0,-305.3186773881746,-125.22182412796809A330,330,0,0,1,-304.3306485194622,-127.60429605512334Q0,0,327.4876243346818,-40.643030246603374Z" fill="#27251F" stroke="rgb(27, 26, 22)" stroke-width="1" style="opacity: 0.75; cursor: pointer;"/><path class="ribbon" d="M327.79527777232346,-38.08222512098384A330,330,0,0,1,328.0829071821523,-35.519093666747935Q0,0,-142.64707348327664,-297.5765656543819A330,330,0,0,1,-140.31693036862794,-298.68237151182126Q0,0,327.79527777232346,-38.08222512098384Z" fill="#27251F" stroke="rgb(27, 26, 22)" stroke-width="1" style="opacity: 0.75; cursor: pointer;"/><path class="ribbon" d="M328.0829071821523,-35.519093666747935A330,330,0,0,1,328.35049499375265,-32.953792457888646Q0,0,-43.19261942350926,-327.1611187585345A330,330,0,0,1,-40.634288312816935,-327.4887091386677Q0,0,328.0829071821523,-35.519093666747935Z" fill="#27251F" stroke="rgb(27, 26, 22)" stroke-width="1" style="opacity: 0.75; cursor: pointer;"/><path class="ribbon" d="M329.5871455471902,-16.501923828914165A330,330,0,0,1,329.80482136689295,-11.348118925700351Q0,0,318.41892758645804,86.65671673153793A330,330,0,0,1,317.0254913356304,91.62334769807384Q0,0,329.5871455471902,-16.501923828914165Z" fill="#C6011F" stroke="rgb(139, 1, 22)" stroke-width="1" style="opacity: 0.75; cursor: pointer;"/><path class="ribbon" d="M329.883442116268,-8.77009791980073A330,330,0,0,1,329.9419112781497,-6.191541174991565Q0,0,187.65647525655828,271.4498983132702A330,330,0,0,1,185.52915708479702,272.9082847247491Q0,0,329.883442116268,-8.77009791980073Z" fill="#C6011F" stroke="rgb(139, 1, 22)" stroke-width="1" style="opacity: 0.75; cursor: pointer;"/><path class="ribbon" d="M329.9419112781497,-6.191541174991565A330,330,0,0,1,329.9802252808328,-3.612606207550475Q0,0,60.514767995827604,324.40401177299145A330,330,0,0,1,57.97745668482042,324.86707207157787Q0,0,329.9419112781497,-6.191541174991565Z" fill="#C6011F" stroke="rgb(139, 1, 22)" stroke-width="1" style="opacity: 0.75; cursor: pointer;"/><path class="ribbon" d="M329.9802252808328,-3.612606207550475A330,330,0,0,1,329.99838178383015,-1.0334505568595571Q0,0,-54.42625629995651,325.4808483231716A330,330,0,0,1,-56.96847320317436,325.0455245975542Q0,0,329.9802252808328,-3.612606207550475Z" fill="#C6011F" stroke="rgb(139, 1, 22)" stroke-width="1" style="opacity: 0.75; cursor: pointer;"/><path class="ribbon" d="M329.99838178383015,-1.0334505568595571A330,330,0,0,1,329.99637967801556,1.5457682242182111Q0,0,-171.65756459166542,281.8398135793774A330,330,0,0,1,-173.85511311097633,280.4895713661555Q0,0,329.99838178383015,-1.0334505568595571Z" fill="#C6011F" stroke="rgb(139, 1, 22)" stroke-width="1" style="opacity: 0.75; cursor: pointer;"/><path class="ribbon" d="M329.99637967801556,1.5457682242182111A330,330,0,0,1,329.97421908569163,4.12489257896341Q0,0,-243.8578756384204,222.33608903890678A330,330,0,0,1,-245.58815224654194,220.42336417932046Q0,0,329.99637967801556,1.5457682242182111Z" fill="#C6011F" stroke="rgb(139, 1, 22)" stroke-width="1" style="opacity: 0.75; cursor: pointer;"/><path class="ribbon" d="M329.97421908569163,4.12489257896341A330,330,0,0,1,329.9319013605823,6.703764956424837Q0,0,-295.31441982757275,147.27319322233797A330,330,0,0,1,-296.45645140733814,144.9605891922648Q0,0,329.97421908569163,4.12489257896341Z" fill="#C6011F" stroke="rgb(139, 1, 22)" stroke-width="1" style="opacity: 0.75; cursor: pointer;"/><path class="ribbon" d="M329.9319013605823,6.703764956424837A330,330,0,0,1,329.8694290877502,9.282227821043827Q0,0,-271.73590770758864,-187.24207983872873A330,330,0,0,1,-270.264169316321,-189.36018267777143Q0,0,329.9319013605823,6.703764956424837Z" fill="#C6011F" stroke="rgb(139, 1, 22)" stroke-width="1" style="opacity: 0.75; cursor: pointer;"/><path class="ribbon" d="M329.8694290877502,9.282227821043827A330,330,0,0,1,329.78680608343853,11.860123662277624Q0,0,-242.10073071875655,-224.24815759654334A330,330,0,0,1,-240.3406669721382,-226.13350879378262Q0,0,329.8694290877502,9.282227821043827Z" fill="#C6011F" stroke="rgb(139, 1, 22)" stroke-width="1" style="opacity: 0.75; cursor: pointer;"/><path class="ribbon" d="M314.00658818153795,101.48823862197065A330,330,0,0,1,313.203789894552,103.93933805681708Q0,0,239.9893075120481,226.50636255939395A330,330,0,0,1,238.21165867406523,228.37514241210806Q0,0,314.00658818153795,101.48823862197065Z" fill="#E31937" stroke="rgb(159, 18, 39)" stroke-width="1" style="opacity: 0.75; cursor: pointer;"/><path class="ribbon" d="M313.203789894552,103.93933805681708A330,330,0,0,1,312.38185892987,106.38408815005543Q0,0,57.97745668482042,324.86707207157787A330,330,0,0,1,55.436603705327144,325.31028721763244Q0,0,313.203789894552,103.93933805681708Z" fill="#E31937" stroke="rgb(159, 18, 39)" stroke-width="1" style="opacity: 0.75; cursor: pointer;"/><path class="ribbon" d="M312.38185892987,106.38408815005543A330,330,0,0,1,311.540845496783,108.82233955925406Q0,0,-105.40529009394572,312.7134867897628A330,330,0,0,1,-107.8461633218804,311.88011327551857Q0,0,312.38185892987,106.38408815005543Z" fill="#E31937" stroke="rgb(159, 18, 39)" stroke-width="1" style="opacity: 0.75; cursor: pointer;"/><path class="ribbon" d="M325.5663914978808,53.91219460426968A330,330,0,0,1,324.2129088138986,61.530397028060044Q0,0,-146.82243243679915,295.53878482077704A330,330,0,0,1,-153.71108756795633,292.0152419971877Q0,0,325.5663914978808,53.91219460426968Z" fill="#E31937" stroke="rgb(159, 18, 39)" stroke-width="1" style="opacity: 0.75; cursor: pointer;"/><path class="ribbon" d="M311.540845496783,108.82233955925406A330,330,0,0,1,310.68080097027246,111.2539433389664Q0,0,-296.45645140733814,144.9605891922648A330,330,0,0,1,-297.58037335395505,142.63912995570584Q0,0,311.540845496783,108.82233955925406Z" fill="#E31937" stroke="rgb(159, 18, 39)" stroke-width="1" style="opacity: 0.75; cursor: pointer;"/><path class="ribbon" d="M328.7818993225703,28.327772200496835A330,330,0,0,1,327.7357605003419,38.59107784530734Q0,0,-329.9319013605822,6.7037649564327895A330,330,0,0,1,-329.9802252808329,-3.612606207542521Q0,0,328.7818993225703,28.327772200496835Z" fill="#E31937" stroke="rgb(159, 18, 39)" stroke-width="1" style="opacity: 0.75; cursor: pointer;"/><path class="ribbon" d="M310.68080097027246,111.2539433389664A330,330,0,0,1,309.8017778878724,113.67875094982953Q0,0,-304.3306485194622,-127.60429605512334A330,330,0,0,1,-303.32402900657803,-129.9789730195488Q0,0,310.68080097027246,111.2539433389664Z" fill="#E31937" stroke="rgb(159, 18, 39)" stroke-width="1" style="opacity: 0.75; cursor: pointer;"/><path class="ribbon" d="M317.0254913356304,91.62334769807384A330,330,0,0,1,315.55459173204173,96.56759102734442Q0,0,-289.3266246533298,-158.71390697324293A330,330,0,0,1,-286.8104140724782,-163.21699169992567Q0,0,317.0254913356304,91.62334769807384Z" fill="#E31937" stroke="rgb(159, 18, 39)" stroke-width="1" style="opacity: 0.75; cursor: pointer;"/><path class="ribbon" d="M324.2129088138986,61.530397028060044A330,330,0,0,1,322.6811866638897,69.11477246713592Q0,0,-248.99203206942008,-216.57093056534825A330,330,0,0,1,-243.84600525975134,-222.3491077536884Q0,0,324.2129088138986,61.530397028060044Z" fill="#E31937" stroke="rgb(159, 18, 39)" stroke-width="1" style="opacity: 0.75; cursor: pointer;"/><path class="ribbon" d="M309.8017778878724,113.67875094982953A330,330,0,0,1,308.9038299464596,116.09661426763817Q0,0,-188.07767213595142,-271.1582365408094A330,330,0,0,1,-185.95262065695175,-272.6199238331854Q0,0,309.8017778878724,113.67875094982953Z" fill="#E31937" stroke="rgb(159, 18, 39)" stroke-width="1" style="opacity: 0.75; cursor: pointer;"/><path class="ribbon" d="M308.9038299464596,116.09661426763817A330,330,0,0,1,307.9870119989736,118.50738559239288Q0,0,-140.31693036862794,-298.68237151182126A330,330,0,0,1,-137.9782157146471,-299.76993176134647Q0,0,308.9038299464596,116.09661426763817Z" fill="#E31937" stroke="rgb(159, 18, 39)" stroke-width="1" style="opacity: 0.75; cursor: pointer;"/><path class="ribbon" d="M322.6811866638897,69.11477246713592A330,330,0,0,1,320.9720671282609,76.66115133110883Q0,0,-76.15418210124423,-321.0927288938361A330,330,0,0,1,-68.6051136343685,-322.78992918493503Q0,0,322.6811866638897,69.11477246713592Z" fill="#E31937" stroke="rgb(159, 18, 39)" stroke-width="1" style="opacity: 0.75; cursor: pointer;"/><path class="ribbon" d="M297.35092876592057,143.11682347664245A330,330,0,0,1,296.22328029078614,145.4364748395888Q0,0,238.21165867406523,228.37514241210806A330,330,0,0,1,236.4194582021753,230.2299715141143Q0,0,297.35092876592057,143.11682347664245Z" fill="#33006F" stroke="rgb(36, 0, 78)" stroke-width="1" style="opacity: 0.75; cursor: pointer;"/><path class="ribbon" d="M296.22328029078614,145.4364748395888A330,330,0,0,1,295.0775364262256,147.7472419256262Q0,0,-56.96847320317436,325.0455245975542A330,330,0,0,1,-59.50721007367293,324.59034481827666Q0,0,296.22328029078614,145.4364748395888Z" fill="#33006F" stroke="rgb(36, 0, 78)" stroke-width="1" style="opacity: 0.75; cursor: pointer;"/><path class="ribbon" d="M295.0775364262256,147.7472419256262A330,330,0,0,1,293.9137671622862,150.04898357694202Q0,0,-173.85511311097633,280.4895713661555A330,330,0,0,1,-176.04204134422335,279.1221948884731Q0,0,295.0775364262256,147.7472419256262Z" fill="#33006F" stroke="rgb(36, 0, 78)" stroke-width="1" style="opacity: 0.75; cursor: pointer;"/><path class="ribbon" d="M301.67920774789474,133.7522172249962A330,330,0,0,1,299.55166511889416,138.45143525618602Q0,0,-329.9802252808329,-3.612606207542521A330,330,0,0,1,-329.88344211626816,-8.770097919792779Q0,0,301.67920774789474,133.7522172249962Z" fill="#33006F" stroke="rgb(36, 0, 78)" stroke-width="1" style="opacity: 0.75; cursor: pointer;"/><path class="ribbon" d="M293.9137671622862,150.04898357694202A330,330,0,0,1,292.73204359013283,152.34155918706026Q0,0,-303.32402900657803,-129.9789730195488A330,330,0,0,1,-302.2988803408812,-132.34570995936954Q0,0,293.9137671622862,150.04898357694202Z" fill="#33006F" stroke="rgb(36, 0, 78)" stroke-width="1" style="opacity: 0.75; cursor: pointer;"/><path class="ribbon" d="M266.36685198305656,194.80426115626022A330,330,0,0,1,261.7263766165466,200.99578051086942Q0,0,196.04982528241877,265.45143813272716A330,330,0,0,1,189.77233005854401,269.97492984377465Q0,0,266.36685198305656,194.80426115626022Z" fill="#0C2340" stroke="rgb(8, 25, 45)" stroke-width="1" style="opacity: 0.75; cursor: pointer;"/><path class="ribbon" d="M284.75230018802665,166.7816762645944A330,330,0,0,1,278.0188605423585,177.77939470795997Q0,0,-8.249140651851796,329.89688037098193A330,330,0,0,1,-21.13166208432129,329.32271840484077Q0,0,284.75230018802665,166.7816762645944Z" fill="#0C2340" stroke="rgb(8, 25, 45)" stroke-width="1" style="opacity: 0.75; cursor: pointer;"/><path class="ribbon" d="M261.7263766165466,200.99578051086942A330,330,0,0,1,256.942014414118,207.07680031528204Q0,0,-83.16569913566404,319.34850318621534A330,330,0,0,1,-90.63007970733779,317.3108706808539Q0,0,261.7263766165466,200.99578051086942Z" fill="#0C2340" stroke="rgb(8, 25, 45)" stroke-width="1" style="opacity: 0.75; cursor: pointer;"/><path class="ribbon" d="M256.942014414118,207.07680031528204A330,330,0,0,1,252.0163956293511,213.0439774647253Q0,0,-270.27427845172804,189.3457536027618A330,330,0,0,1,-274.6392650733769,182.9570279599978Q0,0,256.942014414118,207.07680031528204Z" fill="#0C2340" stroke="rgb(8, 25, 45)" stroke-width="1" style="opacity: 0.75; cursor: pointer;"/><path class="ribbon" d="M236.4194582021753,230.2299715141143A330,330,0,0,1,234.61281557651574,232.07073655948054Q0,0,-328.45123288646164,-31.934113661777793A330,330,0,0,1,-328.1916115598275,-34.50023335809921Q0,0,236.4194582021753,230.2299715141143Z" fill="#0C2340" stroke="rgb(8, 25, 45)" stroke-width="1" style="opacity: 0.75; cursor: pointer;"/><path class="ribbon" d="M272.3259306783814,186.38290554703087A330,330,0,0,1,266.36685198305656,194.80426115626022Q0,0,-319.86096479111114,-81.17242883454675A330,330,0,0,1,-317.16735353912605,-91.13105864076752Q0,0,272.3259306783814,186.38290554703087Z" fill="#0C2340" stroke="rgb(8, 25, 45)" stroke-width="1" style="opacity: 0.75; cursor: pointer;"/><path class="ribbon" d="M234.61281557651574,232.07073655948054A330,330,0,0,1,232.79184115945193,233.89732510140533Q0,0,-137.9782157146471,-299.76993176134647A330,330,0,0,1,-135.63107238637966,-300.83917996717224Q0,0,234.61281557651574,232.07073655948054Z" fill="#0C2340" stroke="rgb(8, 25, 45)" stroke-width="1" style="opacity: 0.75; cursor: pointer;"/><path class="ribbon" d="M252.0163956293511,213.0439774647253A330,330,0,0,1,248.65550798257246,216.9572270055295Q0,0,-55.941577594774785,-325.2238304555922A330,330,0,0,1,-50.85115740457587,-326.0585220334151Q0,0,252.0163956293511,213.0439774647253Z" fill="#0C2340" stroke="rgb(8, 25, 45)" stroke-width="1" style="opacity: 0.75; cursor: pointer;"/><path class="ribbon" d="M248.65550798257246,216.9572270055295A330,330,0,0,1,245.2338627946583,220.81746429757473Q0,0,-21.642906571024152,-329.2895148576066A330,330,0,0,1,-16.493125859336146,-329.58758593033826Q0,0,248.65550798257246,216.9572270055295Z" fill="#0C2340" stroke="rgb(8, 25, 45)" stroke-width="1" style="opacity: 0.75; cursor: pointer;"/><path class="ribbon" d="M215.00048658423668,250.34933746375575A330,330,0,0,1,213.0372500903446,252.02208251251315Q0,0,130.4416321003562,303.1253546224653A330,330,0,0,1,128.06849379544528,304.13559623458417Q0,0,215.00048658423668,250.34933746375575Z" fill="#00A3E0" stroke="rgb(0, 114, 157)" stroke-width="1" style="opacity: 0.75; cursor: pointer;"/><path class="ribbon" d="M213.0372500903446,252.02208251251315A330,330,0,0,1,211.06099979146433,253.67943229010012Q0,0,-176.04204134422335,279.1221948884731A330,330,0,0,1,-178.218215698537,277.7377676752475Q0,0,213.0372500903446,252.02208251251315Z" fill="#00A3E0" stroke="rgb(0, 114, 157)" stroke-width="1" style="opacity: 0.75; cursor: pointer;"/><path class="ribbon" d="M211.06099979146433,253.67943229010012A330,330,0,0,1,209.07185641078394,255.32128555400263Q0,0,-135.63107238637966,-300.83917996717224A330,330,0,0,1,-133.2756437637535,-301.890050812141Q0,0,211.06099979146433,253.67943229010012Z" fill="#00A3E0" stroke="rgb(0, 114, 157)" stroke-width="1" style="opacity: 0.75; cursor: pointer;"/><path class="ribbon" d="M185.52915708479702,272.9082847247491A330,330,0,0,1,183.3905054947303,274.3499999897709Q0,0,-178.218215698537,277.7377676752475A330,330,0,0,1,-180.38350323796985,276.336374296974Q0,0,185.52915708479702,272.9082847247491Z" fill="#EB6E1F" stroke="rgb(165, 77, 22)" stroke-width="1" style="opacity: 0.75; cursor: pointer;"/><path class="ribbon" d="M183.3905054947303,274.3499999897709A330,330,0,0,1,181.2406511301526,275.7749560382855Q0,0,-297.58037335395505,142.63912995570584A330,330,0,0,1,-298.6861170104114,140.308957323625Q0,0,183.3905054947303,274.3499999897709Z" fill="#EB6E1F" stroke="rgb(165, 77, 22)" stroke-width="1" style="opacity: 0.75; cursor: pointer;"/><path class="ribbon" d="M181.2406511301526,275.7749560382855A330,330,0,0,1,179.07972531920237,277.18306582401283Q0,0,-133.2756437637535,-301.890050812141A330,330,0,0,1,-130.9120737328202,-302.9224801017129Q0,0,181.2406511301526,275.7749560382855Z" fill="#EB6E1F" stroke="rgb(165, 77, 22)" stroke-width="1" style="opacity: 0.75; cursor: pointer;"/><path class="ribbon" d="M128.06849379544528,304.13559623458417A330,330,0,0,1,125.68753217136049,305.1272591176888Q0,0,55.436603705327144,325.31028721763244A330,330,0,0,1,52.89236427041577,325.73363013647463Q0,0,128.06849379544528,304.13559623458417Z" fill="#004687" stroke="rgb(0, 49, 95)" stroke-width="1" style="opacity: 0.75; cursor: pointer;"/><path class="ribbon" d="M125.68753217136049,305.1272591176888A330,330,0,0,1,123.29889267388768,306.1002826940758Q0,0,-180.38350323796985,276.336374296974A330,330,0,0,1,-182.53777169161734,274.91810036056006Q0,0,125.68753217136049,305.1272591176888Z" fill="#004687" stroke="rgb(0, 49, 95)" stroke-width="1" style="opacity: 0.75; cursor: pointer;"/><path class="ribbon" d="M158.25680937656364,289.5769021968948A330,330,0,0,1,151.4240724748423,293.20769136421666Q0,0,-214.22212185427085,251.01570171655385A330,330,0,0,1,-220.048390350733,245.92418730993387Q0,0,158.25680937656364,289.5769021968948Z" fill="#004687" stroke="rgb(0, 49, 95)" stroke-width="1" style="opacity: 0.75; cursor: pointer;"/><path class="ribbon" d="M144.5080885922396,296.6772865108103A330,330,0,0,1,139.85306012491003,298.89985208042225Q0,0,-274.6392650733769,182.9570279599978A330,330,0,0,1,-277.465519864157,178.6417792301485Q0,0,144.5080885922396,296.6772865108103Z" fill="#004687" stroke="rgb(0, 49, 95)" stroke-width="1" style="opacity: 0.75; cursor: pointer;"/><path class="ribbon" d="M123.29889267388768,306.1002826940758A330,330,0,0,1,120.90272121783096,307.05460752466075Q0,0,-327.4241318112403,41.1514022562484A330,330,0,0,1,-327.7357605003409,38.59107784531502Q0,0,123.29889267388768,306.1002826940758Z" fill="#004687" stroke="rgb(0, 49, 95)" stroke-width="1" style="opacity: 0.75; cursor: pointer;"/><path class="ribbon" d="M151.4240724748423,293.20769136421666A330,330,0,0,1,144.5080885922396,296.6772865108103Q0,0,-314.1637691594414,-101.00062449080795A330,330,0,0,1,-311.70941555843626,-108.33854462848436Q0,0,151.4240724748423,293.20769136421666Z" fill="#004687" stroke="rgb(0, 49, 95)" stroke-width="1" style="opacity: 0.75; cursor: pointer;"/><path class="ribbon" d="M120.90272121783096,307.05460752466075A330,330,0,0,1,118.49916417809908,307.9901753126095Q0,0,-185.95262065695175,-272.6199238331854A330,330,0,0,1,-183.81620989153038,-274.06495759420403Q0,0,120.90272121783096,307.05460752466075Z" fill="#004687" stroke="rgb(0, 49, 95)" stroke-width="1" style="opacity: 0.75; cursor: pointer;"/><path class="ribbon" d="M118.49916417809908,307.9901753126095A330,330,0,0,1,116.08836838076391,308.90692890689917Q0,0,-130.9120737328202,-302.9224801017129A330,330,0,0,1,-128.54050667696552,-303.9364047678872Q0,0,118.49916417809908,307.9901753126095Z" fill="#004687" stroke="rgb(0, 49, 95)" stroke-width="1" style="opacity: 0.75; cursor: pointer;"/><path class="ribbon" d="M52.89236427041577,325.73363013647463A330,330,0,0,1,50.34489380002263,326.13707496735856Q0,0,-59.50721007367293,324.59034481827666A330,330,0,0,1,-62.042311827650984,324.1153367909031Q0,0,52.89236427041577,325.73363013647463Z" fill="#005A9C" stroke="rgb(0, 63, 109)" stroke-width="1" style="opacity: 0.75; cursor: pointer;"/><path class="ribbon" d="M83.16569913567032,319.34850318621375A330,330,0,0,1,75.65559734376541,321.21057048384637Q0,0,-153.71108756795633,292.0152419971877A330,330,0,0,1,-160.51523840756408,288.3311607144862Q0,0,83.16569913567032,319.34850318621375Z" fill="#005A9C" stroke="rgb(0, 63, 109)" stroke-width="1" style="opacity: 0.75; cursor: pointer;"/><path class="ribbon" d="M100.50437646039146,314.3228758972339A330,330,0,0,1,83.16569913567032,319.34850318621375Q0,0,-200.17515467971222,262.3545453178833A330,330,0,0,1,-214.22212185427085,251.01570171655385Q0,0,100.50437646039146,314.3228758972339Z" fill="#005A9C" stroke="rgb(0, 63, 109)" stroke-width="1" style="opacity: 0.75; cursor: pointer;"/><path class="ribbon" d="M50.34489380002263,326.13707496735856A330,330,0,0,1,47.794347911458324,326.5205970650527Q0,0,-298.6861170104114,140.308957323625A330,330,0,0,1,-299.7736148301524,137.97021363926143Q0,0,50.34489380002263,326.13707496735856Z" fill="#005A9C" stroke="rgb(0, 63, 109)" stroke-width="1" style="opacity: 0.75; cursor: pointer;"/><path class="ribbon" d="M47.794347911458324,326.5205970650527A330,330,0,0,1,45.240882409901495,326.88417300134535Q0,0,-327.7357605003409,38.59107784531502A330,330,0,0,1,-328.02736879736,36.028396021482486Q0,0,47.794347911458324,326.5205970650527Z" fill="#005A9C" stroke="rgb(0, 63, 109)" stroke-width="1" style="opacity: 0.75; cursor: pointer;"/><path class="ribbon" d="M75.65559734376541,321.21057048384637A330,330,0,0,1,70.62550006461865,322.35390293995596Q0,0,-286.8104140724782,-163.21699169992567A330,330,0,0,1,-284.2241230189578,-167.6801952948061Q0,0,75.65559734376541,321.21057048384637Z" fill="#005A9C" stroke="rgb(0, 63, 109)" stroke-width="1" style="opacity: 0.75; cursor: pointer;"/><path class="ribbon" d="M45.240882409901495,326.88417300134535A330,330,0,0,1,42.68465327888115,327.2277805664759Q0,0,-240.3406669721382,-226.13350879378262A330,330,0,0,1,-238.56592153689786,-228.00504617497106Q0,0,45.240882409901495,326.88417300134535Z" fill="#005A9C" stroke="rgb(0, 63, 109)" stroke-width="1" style="opacity: 0.75; cursor: pointer;"/><path class="ribbon" d="M42.68465327888115,327.2277805664759A330,330,0,0,1,40.12581667074812,327.55139877049146Q0,0,-128.54050667696552,-303.9364047678872A330,330,0,0,1,-126.1610874680894,-304.9317628730551Q0,0,42.68465327888115,327.2277805664759Z" fill="#005A9C" stroke="rgb(0, 63, 109)" stroke-width="1" style="opacity: 0.75; cursor: pointer;"/><path class="ribbon" d="M-36.54636635023352,327.97006434519983A330,330,0,0,1,-41.66841357546099,327.35873794677354Q0,0,-233.16715130045804,233.52318847264252A330,330,0,0,1,-236.78887434730234,229.85001410776Q0,0,-36.54636635023352,327.97006434519983Z" fill="#FFC52F" stroke="rgb(179, 138, 33)" stroke-width="1" style="opacity: 0.75; cursor: pointer;"/><path class="ribbon" d="M-41.66841357546099,327.35873794677354A330,330,0,0,1,-46.78027936383872,326.6674233262956Q0,0,-277.465519864157,178.6417792301485A330,330,0,0,1,-280.22397755334214,174.28288041050968Q0,0,-41.66841357546099,327.35873794677354Z" fill="#FFC52F" stroke="rgb(179, 138, 33)" stroke-width="1" style="opacity: 0.75; cursor: pointer;"/><path class="ribbon" d="M7.224779455871117,329.92090349326764A330,330,0,0,1,-8.249140651851796,329.89688037098193Q0,0,-325.2223370412863,-55.95025906467236A330,330,0,0,1,-322.24197040263874,-71.13446781290277Q0,0,7.224779455871117,329.92090349326764Z" fill="#FFC52F" stroke="rgb(179, 138, 33)" stroke-width="1" style="opacity: 0.75; cursor: pointer;"/><path class="ribbon" d="M-62.042311827650984,324.1153367909031A330,330,0,0,1,-64.57362360336562,323.6205295322453Q0,0,-270.264169316321,-189.36018267777143A330,330,0,0,1,-268.7759212996555,-191.46671807267543Q0,0,-62.042311827650984,324.1153367909031Z" fill="#FFC52F" stroke="rgb(179, 138, 33)" stroke-width="1" style="opacity: 0.75; cursor: pointer;"/><path class="ribbon" d="M-64.57362360336562,323.6205295322453A330,330,0,0,1,-67.10099077059232,323.10595326859095Q0,0,-126.1610874680894,-304.9317628730551A330,330,0,0,1,-123.77396145775622,-305.9084936137829Q0,0,-64.57362360336562,323.6205295322453Z" fill="#FFC52F" stroke="rgb(179, 138, 33)" stroke-width="1" style="opacity: 0.75; cursor: pointer;"/><path class="ribbon" d="M-107.8461633218804,311.88011327551857A330,330,0,0,1,-110.28044855199968,311.0276879430025Q0,0,-299.7736148301524,137.97021363926143A330,330,0,0,1,-300.84280038120636,135.62304176943394Q0,0,-107.8461633218804,311.88011327551857Z" fill="#002B5C" stroke="rgb(0, 30, 64)" stroke-width="1" style="opacity: 0.75; cursor: pointer;"/><path class="ribbon" d="M-110.28044855199968,311.0276879430025A330,330,0,0,1,-112.70799708113894,310.15626286431484Q0,0,-268.7759212996555,-191.46671807267543A330,330,0,0,1,-267.2712545701883,-193.5615573415279Q0,0,-110.28044855199968,311.0276879430025Z" fill="#002B5C" stroke="rgb(0, 30, 64)" stroke-width="1" style="opacity: 0.75; cursor: pointer;"/><path class="ribbon" d="M-112.70799708113894,310.15626286431484A330,330,0,0,1,-115.12866061765837,309.26589127219324Q0,0,-123.77396145775622,-305.9084936137829A330,330,0,0,1,-121.37927446831566,-306.866537324527Q0,0,-112.70799708113894,310.15626286431484Z" fill="#002B5C" stroke="rgb(0, 30, 64)" stroke-width="1" style="opacity: 0.75; cursor: pointer;"/><path class="ribbon" d="M-182.53777169161734,274.91810036056006A330,330,0,0,1,-184.68088946169772,273.48303250409555Q0,0,-245.58815224654194,220.42336417932046A330,330,0,0,1,-247.30342661294569,218.49717431924694Q0,0,-182.53777169161734,274.91810036056006Z" fill="#003087" stroke="rgb(0, 34, 95)" stroke-width="1" style="opacity: 0.75; cursor: pointer;"/><path class="ribbon" d="M-160.51523840756408,288.3311607144862A330,330,0,0,1,-165.0025429282229,285.7869150734861Q0,0,-329.88344211626816,-8.770097919792779A330,330,0,0,1,-329.70605383273016,-13.925446709131544Q0,0,-160.51523840756408,288.3311607144862Z" fill="#003087" stroke="rgb(0, 34, 95)" stroke-width="1" style="opacity: 0.75; cursor: pointer;"/><path class="ribbon" d="M-165.0025429282229,285.7869150734861A330,330,0,0,1,-169.44953002792147,283.1728390459024Q0,0,-196.4616995024367,-265.1467530040944A330,330,0,0,1,-192.29317868450158,-268.1852595341704Q0,0,-165.0025429282229,285.7869150734861Z" fill="#003087" stroke="rgb(0, 34, 95)" stroke-width="1" style="opacity: 0.75; cursor: pointer;"/><path class="ribbon" d="M-184.68088946169772,273.48303250409555A330,330,0,0,1,-186.81272563159095,272.03125839156047Q0,0,-121.37927446831566,-306.866537324527A330,330,0,0,1,-118.97717278399493,-307.80583548127777Q0,0,-184.68088946169772,273.48303250409555Z" fill="#003087" stroke="rgb(0, 34, 95)" stroke-width="1" style="opacity: 0.75; cursor: pointer;"/><path class="ribbon" d="M-236.78887434730234,229.85001410776A330,330,0,0,1,-240.35273939658887,226.12067721585183Q0,0,-280.22397755334214,174.28288041050968A330,330,0,0,1,-282.9139641276845,169.88139657290094Q0,0,-236.78887434730234,229.85001410776Z" fill="#FF5910" stroke="rgb(179, 62, 11)" stroke-width="1" style="opacity: 0.75; cursor: pointer;"/><path class="ribbon" d="M-247.30342661294569,218.49717431924694A330,330,0,0,1,-249.00359395667866,216.55763712383248Q0,0,-328.02736879736,36.028396021482486A330,330,0,0,1,-328.29893888882344,33.46351333127724Q0,0,-247.30342661294569,218.49717431924694Z" fill="#FF5910" stroke="rgb(179, 62, 11)" stroke-width="1" style="opacity: 0.75; cursor: pointer;"/><path class="ribbon" d="M-249.00359395667866,216.55763712383248A330,330,0,0,1,-250.68855041963025,214.6048710735721Q0,0,-302.2988803408812,-132.34570995936954A330,330,0,0,1,-301.255265145621,-134.70436229774288Q0,0,-249.00359395667866,216.55763712383248Z" fill="#FF5910" stroke="rgb(179, 62, 11)" stroke-width="1" style="opacity: 0.75; cursor: pointer;"/><path class="ribbon" d="M-250.68855041963025,214.6048710735721A330,330,0,0,1,-252.35819307287704,212.63899545707162Q0,0,-267.2712545701883,-193.5615573415279A330,330,0,0,1,-265.7502610434852,-195.6445725168973Q0,0,-250.68855041963025,214.6048710735721Z" fill="#FF5910" stroke="rgb(179, 62, 11)" stroke-width="1" style="opacity: 0.75; cursor: pointer;"/><path class="ribbon" d="M-252.35819307287704,212.63899545707162A330,330,0,0,1,-254.01241992297,210.66013036376097Q0,0,-238.56592153689786,-228.00504617497106A330,330,0,0,1,-236.77660282689743,-229.86265541351787Q0,0,-252.35819307287704,212.63899545707162Z" fill="#FF5910" stroke="rgb(179, 62, 11)" stroke-width="1" style="opacity: 0.75; cursor: pointer;"/><path class="ribbon" d="M-254.01241992297,210.66013036376097A330,330,0,0,1,-255.65112991816528,208.66839667655802Q0,0,-183.81620989153038,-274.06495759420403A330,330,0,0,1,-181.66857034659662,-275.49324955109824Q0,0,-254.01241992297,210.66013036376097Z" fill="#FF5910" stroke="rgb(179, 62, 11)" stroke-width="1" style="opacity: 0.75; cursor: pointer;"/><path class="ribbon" d="M-220.048390350733,245.92418730993387A330,330,0,0,1,-225.75368492379516,240.6974734876289Q0,0,-68.6051136343685,-322.78992918493503A330,330,0,0,1,-61.01832878270837,-324.30967230806624Q0,0,-220.048390350733,245.92418730993387Z" fill="#FF5910" stroke="rgb(179, 62, 11)" stroke-width="1" style="opacity: 0.75; cursor: pointer;"/><path class="ribbon" d="M-300.84280038120636,135.62304176943394A330,330,0,0,1,-301.8936083502431,133.26758509581398Q0,0,-321.9071699618655,72.63452297043492A330,330,0,0,1,-322.4650315844758,70.11635618900232Q0,0,-300.84280038120636,135.62304176943394Z" fill="#003087" stroke="rgb(0, 34, 95)" stroke-width="1" style="opacity: 0.75; cursor: pointer;"/><path class="ribbon" d="M-282.9139641276845,169.88139657290094A330,330,0,0,1,-285.5348223044589,165.43840319454574Q0,0,-329.70605383273016,-13.925446709131544A330,330,0,0,1,-329.4481037740241,-19.07739289577663Q0,0,-282.9139641276845,169.88139657290094Z" fill="#003087" stroke="rgb(0, 34, 95)" stroke-width="1" style="opacity: 0.75; cursor: pointer;"/><path class="ribbon" d="M-301.8936083502431,133.26758509581398A330,330,0,0,1,-302.9259745465637,130.9039875061667Q0,0,-301.255265145621,-134.70436229774288A330,330,0,0,1,-300.19324717211146,-137.0547859516901Q0,0,-301.8936083502431,133.26758509581398Z" fill="#003087" stroke="rgb(0, 34, 95)" stroke-width="1" style="opacity: 0.75; cursor: pointer;"/><path class="ribbon" d="M-285.5348223044589,165.43840319454574A330,330,0,0,1,-288.08591169206574,160.95498589528472Q0,0,-284.2241230189578,-167.6801952948061A330,330,0,0,1,-281.5683834380908,-172.10242719979365Q0,0,-285.5348223044589,165.43840319454574Z" fill="#003087" stroke="rgb(0, 34, 95)" stroke-width="1" style="opacity: 0.75; cursor: pointer;"/><path class="ribbon" d="M-302.9259745465637,130.9039875061667A330,330,0,0,1,-303.9398359060216,128.53239338556128Q0,0,-236.77660282689743,-229.86265541351787A330,330,0,0,1,-234.97282014623627,-231.70622303366065Q0,0,-302.9259745465637,130.9039875061667Z" fill="#003087" stroke="rgb(0, 34, 95)" stroke-width="1" style="opacity: 0.75; cursor: pointer;"/><path class="ribbon" d="M-303.9398359060216,128.53239338556128A330,330,0,0,1,-304.93513049487507,126.15294760755097Q0,0,-118.97717278399493,-307.80583548127777A330,330,0,0,1,-116.56780314196257,-308.72633070513547Q0,0,-303.9398359060216,128.53239338556128Z" fill="#003087" stroke="rgb(0, 34, 95)" stroke-width="1" style="opacity: 0.75; cursor: pointer;"/><path class="ribbon" d="M-288.08591169206574,160.95498589528472A330,330,0,0,1,-290.5666089465073,156.43224017231074Q0,0,-50.85115740457587,-326.0585220334151A330,330,0,0,1,-45.7483120269646,-326.81354308945566Q0,0,-288.08591169206574,160.95498589528472Z" fill="#003087" stroke="rgb(0, 34, 95)" stroke-width="1" style="opacity: 0.75; cursor: pointer;"/><path class="ribbon" d="M-317.453596506199,90.12887475875533A330,330,0,0,1,-318.82362029287526,85.15573464743586Q0,0,-329.4481037740241,-19.07739289577663A330,330,0,0,1,-329.1096549687612,-24.224677631352208Q0,0,-317.453596506199,90.12887475875533Z" fill="#003831" stroke="rgb(0, 39, 34)" stroke-width="1" style="opacity: 0.75; cursor: pointer;"/><path class="ribbon" d="M-318.82362029287526,85.15573464743586A330,330,0,0,1,-320.1157413643369,80.16178722284697Q0,0,-281.5683834380908,-172.10242719979365A330,330,0,0,1,-278.8438442445468,-176.482606867994Q0,0,-318.82362029287526,85.15573464743586Z" fill="#003831" stroke="rgb(0, 39, 34)" stroke-width="1" style="opacity: 0.75; cursor: pointer;"/><path class="ribbon" d="M-322.4650315844758,70.11635618900232A330,330,0,0,1,-323.0031947879844,67.59390621021555Q0,0,-181.66857034659662,-275.49324955109824A330,330,0,0,1,-179.50983321499214,-276.90471245380735Q0,0,-322.4650315844758,70.11635618900232Z" fill="#003831" stroke="rgb(0, 39, 34)" stroke-width="1" style="opacity: 0.75; cursor: pointer;"/><path class="ribbon" d="M-320.1157413643369,80.16178722284697A330,330,0,0,1,-321.32964399824255,75.148252727277Q0,0,-154.164252828632,-291.7762552878312A330,330,0,0,1,-149.58465284705716,-294.15035548614486Q0,0,-320.1157413643369,80.16178722284697Z" fill="#003831" stroke="rgb(0, 39, 34)" stroke-width="1" style="opacity: 0.75; cursor: pointer;"/><path class="ribbon" d="M-328.1916115598275,-34.50023335809921A330,330,0,0,1,-327.9119419945413,-37.0642455389097Q0,0,-265.7502610434852,-195.6445725168973A330,330,0,0,1,-264.21303363246693,-197.71563635365032Q0,0,-328.1916115598275,-34.50023335809921Z" fill="#FDB827" stroke="rgb(177, 129, 27)" stroke-width="1" style="opacity: 0.75; cursor: pointer;"/><path class="ribbon" d="M-327.9119419945413,-37.0642455389097A330,330,0,0,1,-327.6122412747758,-39.62599357641535Q0,0,-116.56780314196257,-308.72633070513547A330,330,0,0,1,-114.15131272336485,-309.62796676581485Q0,0,-327.9119419945413,-37.0642455389097Z" fill="#FDB827" stroke="rgb(177, 129, 27)" stroke-width="1" style="opacity: 0.75; cursor: pointer;"/><path class="ribbon" d="M-300.19324717211146,-137.0547859516901A330,330,0,0,1,-299.11289129583696,-139.39683734089812Q0,0,-264.21303363246693,-197.71563635365032A330,330,0,0,1,-262.6596662417336,-199.77462233672503Q0,0,-300.19324717211146,-137.0547859516901Z" fill="#7F411C" stroke="rgb(89, 46, 20)" stroke-width="1" style="opacity: 0.75; cursor: pointer;"/><path class="ribbon" d="M-299.11289129583696,-139.39683734089812A330,330,0,0,1,-298.0142635124894,-141.73037339649028Q0,0,-179.50983321499214,-276.90471245380735A330,330,0,0,1,-177.34013036747677,-278.29926008030696Q0,0,-299.11289129583696,-139.39683734089812Z" fill="#7F411C" stroke="rgb(89, 46, 20)" stroke-width="1" style="opacity: 0.75; cursor: pointer;"/><path class="ribbon" d="M-298.0142635124894,-141.73037339649028A330,330,0,0,1,-296.8974309339362,-144.05525156976609Q0,0,-114.15131272336485,-309.62796676581485A330,330,0,0,1,-111.72784914433491,-310.51068858508035Q0,0,-298.0142635124894,-141.73037339649028Z" fill="#7F411C" stroke="rgb(89, 46, 20)" stroke-width="1" style="opacity: 0.75; cursor: pointer;"/><path class="ribbon" d="M-317.16735353912605,-91.13105864076752A330,330,0,0,1,-314.1637691594414,-101.00062449080795Q0,0,-93.59873100166959,-316.44790654209913A330,330,0,0,1,-83.66138400332747,-319.21900448852944Q0,0,-317.16735353912605,-91.13105864076752Z" fill="#7F411C" stroke="rgb(89, 46, 20)" stroke-width="1" style="opacity: 0.75; cursor: pointer;"/><path class="ribbon" d="M-262.6596662417336,-199.77462233672503A330,330,0,0,1,-261.09025376182785,-201.8214046888593Q0,0,-234.97282014623627,-231.70622303366065A330,330,0,0,1,-233.15468368257424,-233.53563641739723Q0,0,-262.6596662417336,-199.77462233672503Z" fill="#FD5A1E" stroke="rgb(177, 63, 21)" stroke-width="1" style="opacity: 0.75; cursor: pointer;"/><path class="ribbon" d="M-261.09025376182785,-201.8214046888593A330,330,0,0,1,-259.50489206343894,-203.85585837827404Q0,0,-177.34013036747677,-278.29926008030696A330,330,0,0,1,-175.1595943446731,-279.6768072418762Q0,0,-261.09025376182785,-201.8214046888593Z" fill="#FD5A1E" stroke="rgb(177, 63, 21)" stroke-width="1" style="opacity: 0.75; cursor: pointer;"/><path class="ribbon" d="M-278.8438442445468,-176.482606867994A330,330,0,0,1,-276.0511711637846,-180.81966402773486Q0,0,-149.58465284705716,-294.15035548614486A330,330,0,0,1,-144.9685027171573,-296.452581739383Q0,0,-278.8438442445468,-176.482606867994Z" fill="#FD5A1E" stroke="rgb(177, 63, 21)" stroke-width="1" style="opacity: 0.75; cursor: pointer;"/><path class="ribbon" d="M-233.15468368257424,-233.53563641739723A330,330,0,0,1,-231.32230450040063,-235.35078381136515Q0,0,-175.1595943446731,-279.6768072418762A330,330,0,0,1,-172.96835834896962,-281.0372697883013Q0,0,-233.15468368257424,-233.53563641739723Z" fill="#0C2C56" stroke="rgb(8, 31, 60)" stroke-width="1" style="opacity: 0.75; cursor: pointer;"/><path class="ribbon" d="M-172.96835834896962,-281.0372697883013A330,330,0,0,1,-170.76655623638413,-282.38056461301625Q0,0,-111.72784914433491,-310.51068858508035A330,330,0,0,1,-109.29756044697521,-311.37444224011034Q0,0,-172.96835834896962,-281.0372697883013Z" fill="#C41E3A" stroke="rgb(137, 21, 41)" stroke-width="1" style="opacity: 0.75; cursor: pointer;"/><path class="ribbon" d="M-170.76655623638413,-282.38056461301625A330,330,0,0,1,-168.55432250838672,-283.70660965817973Q0,0,-40.634288312816935,-327.4887091386677A330,330,0,0,1,-38.07347497564211,-327.796294218344Q0,0,-170.76655623638413,-282.38056461301625Z" fill="#C41E3A" stroke="rgb(137, 21, 41)" stroke-width="1" style="opacity: 0.75; cursor: pointer;"/></g></g></svg>